<svg width="50" height="50" viewBox="0 0 50 50" fill="none" xmlns="http://www.w3.org/2000/svg">
<path opacity="0.3" fill-rule="evenodd" clip-rule="evenodd" d="M0 25V27C0 39.7025 10.2975 50 23 50H25H27C39.7025 50 50 39.7025 50 27V25V23C50 10.2975 39.7025 0 27 0H25H23C10.2975 0 0 10.2975 0 23V25Z" fill="#FF9066"/>
<path opacity="0.78" fill-rule="evenodd" clip-rule="evenodd" d="M23.8537 19.9176C23.8737 19.6571 24.0909 19.456 24.3522 19.456H24.5478C24.8047 19.456 25.0198 19.6506 25.0453 19.9062L25.5558 25.0115L29.1928 27.0898C29.3486 27.1788 29.4447 27.3445 29.4447 27.5239V27.6903C29.4447 28.0199 29.1312 28.2594 28.8132 28.1726L23.7323 26.7869C23.5009 26.7238 23.3469 26.5053 23.3653 26.2662L23.8537 19.9176Z" fill="#FF9066"/>
<path opacity="0.901274" fill-rule="evenodd" clip-rule="evenodd" d="M19.0413 12.6139C18.7772 12.2991 18.2673 12.4196 18.172 12.8193L16.8751 18.2561C16.7975 18.5817 17.0555 18.8902 17.3898 18.8713L22.9827 18.5543C23.3936 18.5311 23.602 18.049 23.3374 17.7338L21.9431 16.0721C22.9138 15.7404 23.9432 15.5671 25.0002 15.5671C30.2162 15.5671 34.4446 19.7955 34.4446 25.0115C34.4446 30.2276 30.2162 34.456 25.0002 34.456C19.7841 34.456 15.5557 30.2276 15.5557 25.0115C15.5557 24.1359 15.6743 23.2783 15.9055 22.454L13.7659 21.8538C13.4842 22.8581 13.3335 23.9173 13.3335 25.0115C13.3335 31.4549 18.5568 36.6782 25.0002 36.6782C31.4435 36.6782 36.6668 31.4549 36.6668 25.0115C36.6668 18.5682 31.4435 13.3449 25.0002 13.3449C23.3794 13.3449 21.8358 13.6754 20.4332 14.2726L19.0413 12.6139Z" fill="#FF9066"/>
</svg>
