<svg width="50" height="50" viewBox="0 0 50 50" fill="none" xmlns="http://www.w3.org/2000/svg">
<path opacity="0.21" fill-rule="evenodd" clip-rule="evenodd" d="M0 25V27C0 39.7025 10.2975 50 23 50H25H27C39.7025 50 50 39.7025 50 27V25V23C50 10.2975 39.7025 0 27 0H25H23C10.2975 0 0 10.2975 0 23V25Z" fill="#8280FF"/>
<path opacity="0.587821" fill-rule="evenodd" clip-rule="evenodd" d="M17.2222 19.4444C17.2222 21.899 19.212 23.8889 21.6666 23.8889C24.1212 23.8889 26.1111 21.899 26.1111 19.4444C26.1111 16.9898 24.1212 15 21.6666 15C19.212 15 17.2222 16.9898 17.2222 19.4444ZM28.3333 23.8889C28.3333 25.7298 29.8257 27.2222 31.6667 27.2222C33.5076 27.2222 35 25.7298 35 23.8889C35 22.0479 33.5076 20.5555 31.6667 20.5555C29.8257 20.5555 28.3333 22.0479 28.3333 23.8889Z" fill="#8280FF"/>
<path fill-rule="evenodd" clip-rule="evenodd" d="M21.6481 26.1111C16.4021 26.1111 12.098 28.8072 11.6674 34.1102C11.6439 34.3991 12.1963 35 12.475 35H30.8296C31.6643 35 31.6773 34.3283 31.6643 34.1111C31.3387 28.6591 26.968 26.1111 21.6481 26.1111ZM31.2236 28.334C32.6181 30.1909 33.4444 32.499 33.4444 35H37.7288C38.3316 35 38.341 34.4962 38.3316 34.3333C38.099 30.2891 35.0085 28.3754 31.2236 28.334Z" fill="#8280FF"/>
</svg>
