<svg width="50" height="50" viewBox="0 0 50 50" fill="none" xmlns="http://www.w3.org/2000/svg">
<path opacity="0.21" fill-rule="evenodd" clip-rule="evenodd" d="M0 25V27C0 39.7025 10.2975 50 23 50H25H27C39.7025 50 50 39.7025 50 27V25V23C50 10.2975 39.7025 0 27 0H25H23C10.2975 0 0 10.2975 0 23V25Z" fill="#FEC53D"/>
<path fill-rule="evenodd" clip-rule="evenodd" d="M12.5 20.2637L23.2504 26.4705C23.3662 26.5373 23.4876 26.5856 23.6111 26.6162V38.6539L13.2667 32.5321C12.7915 32.2508 12.5 31.7396 12.5 31.1874V20.2637ZM37.5 20.0987V31.1874C37.5 31.7396 37.2085 32.2508 36.7332 32.5321L26.3889 38.6539V26.5108C26.4141 26.4982 26.439 26.4848 26.4638 26.4705L37.5 20.0987Z" fill="#FEC53D"/>
<path opacity="0.499209" fill-rule="evenodd" clip-rule="evenodd" d="M12.8378 17.2512C12.9691 17.0854 13.1348 16.9452 13.3281 16.8423L24.2656 11.0168C24.7247 10.7722 25.2755 10.7722 25.7346 11.0168L36.6721 16.8423C36.8211 16.9216 36.9537 17.0231 37.0668 17.1414L25.075 24.0649C24.9961 24.1104 24.9234 24.1625 24.8572 24.22C24.7909 24.1625 24.7182 24.1104 24.6394 24.0649L12.8378 17.2512Z" fill="#FEC53D"/>
</svg>
